<?xml version="1.0" encoding="UTF-8" standalone="no"?>
<!-- Created with Inkscape (http://www.inkscape.org/) -->

<svg
   xmlns:dc="http://purl.org/dc/elements/1.1/"
   xmlns:cc="http://creativecommons.org/ns#"
   xmlns:rdf="http://www.w3.org/1999/02/22-rdf-syntax-ns#"
   xmlns:svg="http://www.w3.org/2000/svg"
   xmlns="http://www.w3.org/2000/svg"
   xmlns:sodipodi="http://sodipodi.sourceforge.net/DTD/sodipodi-0.dtd"
   xmlns:inkscape="http://www.inkscape.org/namespaces/inkscape"
   width="210mm"
   height="297mm"
   viewBox="0 0 210 297"
   version="1.1"
   id="svg4561"
   sodipodi:docname="nais-logo.svg"
   inkscape:version="0.91 r13725"
   inkscape:export-filename="/home/adona/ZAKKE/NAIS/burba/doc/doxygen/src/favicon.png"
   inkscape:export-xdpi="8.9007025"
   inkscape:export-ydpi="8.9007025">
  <defs
     id="defs4555" />
  <sodipodi:namedview
     id="base"
     pagecolor="#ffffff"
     bordercolor="#666666"
     borderopacity="1.0"
     inkscape:pageopacity="0.0"
     inkscape:pageshadow="2"
     inkscape:zoom="0.7"
     inkscape:cx="501.70536"
     inkscape:cy="617.14286"
     inkscape:document-units="mm"
     inkscape:current-layer="layer1"
     showgrid="false"
     inkscape:window-width="1215"
     inkscape:window-height="776"
     inkscape:window-x="65"
     inkscape:window-y="24"
     inkscape:window-maximized="1" />
  <metadata
     id="metadata4558">
    <rdf:RDF>
      <cc:Work
         rdf:about="">
        <dc:format>image/svg+xml</dc:format>
        <dc:type
           rdf:resource="http://purl.org/dc/dcmitype/StillImage" />
        <dc:title></dc:title>
      </cc:Work>
    </rdf:RDF>
  </metadata>
  <g
     inkscape:label="Livello 1"
     inkscape:groupmode="layer"
     id="layer1">
    <g
       transform="matrix(4.0265988,0,0,4.0265988,-287.48901,-453.2386)"
       aria-label="N"
       style="font-style:normal;font-variant:normal;font-weight:normal;font-stretch:normal;font-size:25.39999962px;line-height:125%;font-family:Sacramento;-inkscape-font-specification:Sacramento;letter-spacing:0px;word-spacing:0px;fill:#003dfe;fill-opacity:1;stroke:none;stroke-width:0.26458332px;stroke-linecap:butt;stroke-linejoin:miter;stroke-opacity:1"
       id="text4495">
      <path
         d="m 105.42532,142.57447 c 0.12761,1.84443 -1.90002,2.11605 -2.42201,3.96164 -0.0992,0.34727 -0.21497,0.8475 -0.34726,1.50069 -0.12403,0.64492 -0.26045,1.37252 -0.40928,2.18281 -0.14056,0.81029 -0.28525,1.67432 -0.43408,2.59209 -0.14056,0.91777 -0.27699,1.81901 -0.40928,2.70371 -0.12403,0.8847 -0.23978,1.72806 -0.34727,2.53008 -0.10749,0.79375 -0.19017,1.47588 -0.24804,2.04639 -0.0165,0.10749 -0.0661,0.20257 -0.14883,0.28525 -0.0744,0.0909 -0.1695,0.13643 -0.28526,0.13643 -0.11575,0 -0.2191,-0.0289 -0.31005,-0.0868 -0.08268,-0.0579 -0.140564,-0.14468 -0.173637,-0.26045 -0.107487,-0.39687 -0.276985,-0.94671 -0.508496,-1.64951 -1.284826,-3.79935 -2.778858,-7.99666 -4.011249,-11.30378 -0.322461,-0.89297 -0.511988,-1.61086 -0.678615,-1.61244 -0.129023,-4.5e-4 -0.178345,0.83806 -0.269296,1.40857 -0.08268,0.56224 -0.163008,0.95739 -0.311836,1.61058 -0.14056,0.64492 -0.318327,1.33118 -0.533301,2.05879 -0.814862,2.76357 -2.36393,5.70577 -4.365624,7.4042 -0.589001,0.48304 -2.049968,1.14231 -3.497003,-0.0193 -0.553971,-0.44649 -1.1652,-1.01108 -1.479393,-1.62293 -0.305925,-0.62012 -0.458887,-1.30225 -0.458887,-2.04639 0,-0.66973 0.201972,-1.80771 0.517343,-2.74077 0.394498,-0.92363 0.585447,-1.15445 1.109142,-1.11805 0.882294,0.0613 1.689182,1.31009 1.403122,1.63694 -1.047077,1.86954 -1.711515,3.83371 0.738992,3.98775 3.722848,-1.39651 5.103082,-6.86535 5.617783,-10.0844 0.124023,-0.82682 0.166937,-1.34014 0.298215,-1.88133 0.09103,-0.88354 0.407484,-1.73045 1.083655,-1.7154 3.776114,0.0841 4.5938,11.37985 5.619445,9.83955 1.46584,-4.51697 0.11019,-7.85291 3.90737,-10.73058 0.86393,-0.71502 1.35363,0.98666 1.35363,0.98666 z"
         style="stroke-width:0.26458332px;fill:#003dfe;fill-opacity:1"
         id="path4497"
         inkscape:connector-curvature="0"
         sodipodi:nodetypes="cccccccccscccccccccccscsccccaccc" />
    </g>
    <circle
       style="opacity:1;fill:#00ff00;fill-opacity:1;fill-rule:nonzero;stroke:#000000;stroke-width:1.06537092;stroke-linejoin:miter;stroke-miterlimit:4;stroke-dasharray:none;stroke-dashoffset:0;stroke-opacity:0.98795184"
       id="path4500"
       cx="64.452972"
       cy="147.12758"
       r="6.7050147" />
    <circle
       style="opacity:1;fill:#ffffff;fill-opacity:1;fill-rule:nonzero;stroke:#000000;stroke-width:1.06537092;stroke-linejoin:miter;stroke-miterlimit:4;stroke-dasharray:none;stroke-dashoffset:0;stroke-opacity:0.98795184"
       id="path4500-6"
       cx="89.561089"
       cy="111.81927"
       r="6.7050147" />
    <circle
       style="opacity:1;fill:#ff0000;fill-opacity:1;fill-rule:nonzero;stroke:#000000;stroke-width:1.06537092;stroke-linejoin:miter;stroke-miterlimit:4;stroke-dasharray:none;stroke-dashoffset:0;stroke-opacity:0.98795184"
       id="path4500-0"
       cx="142.4879"
       cy="113.38853"
       r="6.7050147" />
  </g>
</svg>
